<svg width="627" height="627" viewBox="0 0 627 627" fill="none" xmlns="http://www.w3.org/2000/svg">
<path d="M182.78 214.131L143.123 244.276L103.465 274.421L96.5085 224.978L89.5506 175.535L136.165 194.833L182.78 214.131Z" stroke="#B1C3FA" stroke-width="2" stroke-linecap="round" stroke-linejoin="round"/>
<path d="M0.000427246 0.000488281H626.001V626.001H0.000427246V0.000488281ZM0.000427246 626.001H626.001V0.000488281H0.000427246V626.001ZM38.9429 339.91C29.2602 339.91 21.4122 347.759 21.4122 357.441C21.4117 357.441 34.0225 459.542 38.6199 496.764H133.407C133.398 490.759 133.218 364.113 132.244 339.91H38.9429Z" fill="#3B3744"/>
<path d="M76.7173 337.178H129.76" stroke="#1B3B86" stroke-width="4.625" stroke-linecap="round" stroke-linejoin="round"/>
<path d="M36.4446 496.519L18.9265 354.709C18.9265 345.027 26.7766 337.178 36.4592 337.178H43.0641" stroke="#1B3B86" stroke-width="4.625" stroke-linecap="round" stroke-linejoin="round"/>
<path d="M0.000427246 0.000488281H626.001V626.001H0.000427246V0.000488281ZM0.000427246 626.001H626.001V0.000488281H0.000427246V626.001ZM547.177 343.391C536.516 343.656 513.483 347.785 513.483 347.785C513.351 359.038 516.419 478.307 516.883 496.251H582.663L605.966 360.921C605.966 351.239 598.118 343.391 588.436 343.391C588.436 343.391 560.123 343.801 549.131 343.391C548.54 343.372 547.887 343.373 547.177 343.391Z" fill="#3B3744"/>
<path d="M582.526 341.229H545.833" stroke="#1B3B86" stroke-width="4.625" stroke-linecap="round" stroke-linejoin="round"/>
<path d="M578.785 496.547L599.6 376.578" stroke="#1B3B86" stroke-width="4.625" stroke-linecap="round" stroke-linejoin="round"/>
<path d="M310.506 419.615C310.506 397.169 328.703 378.972 351.15 378.972C373.596 378.972 391.792 397.169 391.792 419.615C391.792 442.062 373.596 460.258 351.15 460.258C328.703 460.258 310.506 442.062 310.506 419.615Z" stroke="#EAEFFF" stroke-width="3" stroke-linecap="round" stroke-linejoin="round"/>
<path d="M128.234 183.67H287.523V350.317H128.234V183.67Z" fill="#D6DFFF"/>
<path d="M0.000427246 0.000488281H626.001V626.001H0.000427246V0.000488281ZM0.000427246 626.001H626.001V0.000488281H0.000427246V626.001ZM380.368 223.076C380.368 201.09 398.192 183.267 420.177 183.267C442.163 183.267 459.987 201.09 459.987 223.076C459.987 245.062 442.163 262.885 420.177 262.885C398.192 262.885 380.368 245.062 380.368 223.076Z" fill="#D6DFFF"/>
<path d="M0.000427246 0.000488281H626.001V626.001H0.000427246V0.000488281ZM0.000427246 626.001H626.001V0.000488281H0.000427246V626.001ZM418.619 374.62C416.036 378.443 409.505 387.979 406.921 391.698C379.136 355.14 350.372 333.97 342.817 297.897C335.506 293.244 335.926 309.849 341.418 322.278C332.843 327.764 324.718 333.266 327.217 337.332C336.771 352.886 339.646 347.992 343.215 348.312C346.785 348.633 375.375 407.242 383.611 416.46C389.68 423.254 394.397 431.2 413.16 439.272C415.177 422.099 427.823 381.438 430.405 378.352C428.085 376.692 421.201 370.798 418.619 374.62Z" fill="white"/>
<path d="M0.000427246 0.000488281H626.001V626.001H0.000427246V0.000488281ZM0.000427246 626.001H626.001V0.000488281H0.000427246V626.001ZM427.841 382.487C419.238 375.928 413.421 370.76 413.267 368.334C412.903 362.599 447.279 313.724 470.669 329.223C480.594 336.434 444.861 395.18 427.841 382.487Z" fill="#46DBC8"/>
<path d="M446.733 326.947C454.271 323.209 462.004 322.27 468.807 326.78" stroke="#1B3B86" stroke-width="4.625" stroke-linecap="round" stroke-linejoin="round"/>
<path d="M425.98 380.043C417.248 373.657 411.559 368.316 411.406 365.891C411.249 363.411 417.585 352.867 426.719 342.949" stroke="#1B3B86" stroke-width="4.625" stroke-linecap="round" stroke-linejoin="round"/>
<path d="M416.212 372.34C414.925 374.224 404.742 389.356 404.742 389.356C404.742 389.356 359.191 335.456 356.099 331.231C346.867 318.614 342.464 303.205 341.958 299.819C341.48 296.621 339.934 292.846 337.256 294.616C333.03 297.802 335.792 314.088 339.036 319.654" stroke="#1B3B86" stroke-width="4.625" stroke-linecap="round" stroke-linejoin="round"/>
<path d="M333.757 321.516C333.867 324.324 336.447 332.957 340.611 336.874" stroke="#1B3B86" stroke-width="4.625" stroke-linecap="round" stroke-linejoin="round"/>
<path d="M328.809 326.508C329.196 329.292 332.617 337.628 337.146 341.115" stroke="#1B3B86" stroke-width="4.625" stroke-linecap="round" stroke-linejoin="round"/>
<path d="M323.901 331.619C324.455 334.374 328.371 342.489 333.103 345.697" stroke="#1B3B86" stroke-width="4.625" stroke-linecap="round" stroke-linejoin="round"/>
<path d="M370.183 397.453C360.75 380.704 352.746 362.041 342.948 348.382" stroke="#1B3B86" stroke-width="4.625" stroke-linecap="round" stroke-linejoin="round"/>
<path d="M411.239 436.676C402.518 434.576 395.184 429.819 388.766 423.414" stroke="#1B3B86" stroke-width="4.625" stroke-linecap="round" stroke-linejoin="round"/>
<path d="M0.00109863 0.000488281H626.001V626.001H0.00109863V0.000488281ZM0.00109863 626.001H626.001V0.000488281H0.00109863V626.001ZM492.458 325.369C423.669 325.997 409.949 444.128 406.757 496.251H536.983C553.415 445.121 565.565 336.034 503.26 326.189C499.516 325.602 495.918 325.337 492.458 325.369Z" fill="#46DBC8"/>
<path d="M513.704 326.723C561.834 349.883 549.464 450.82 533.803 496.506" stroke="#1B3B86" stroke-width="4.625" stroke-linecap="round" stroke-linejoin="round"/>
<path d="M415.764 415.083C426.311 371.04 446.152 328.206 483.461 322.465" stroke="#1B3B86" stroke-width="4.625" stroke-linecap="round" stroke-linejoin="round"/>
<path d="M404.494 496.554C405.079 486.055 406.159 472.32 408.145 457.156" stroke="#1B3B86" stroke-width="4.625" stroke-linecap="round" stroke-linejoin="round"/>
<path d="M527.901 451.766C528.771 464.599 529.714 476.454 530.441 479.991C526.602 484.66 517.675 496.515 517.675 496.515" stroke="#1B3B86" stroke-width="4.625" stroke-linecap="round" stroke-linejoin="round"/>
<path d="M525.488 412.583C525.598 414.192 525.918 419.834 526.357 427.239" stroke="#1B3B86" stroke-width="4.625" stroke-linecap="round" stroke-linejoin="round"/>
<path d="M0.00152588 0.000488281H626.002V626.001H0.00152588V0.000488281ZM0.00152588 626.001H626.002V0.000488281H0.00152588V626.001ZM569.401 408.759C561.536 412.798 546.428 415.156 527.324 415.823C527.854 427.042 530.421 462.415 531.786 481.827C528.812 486.165 524.468 491.831 521.008 496.251H553.553C558.649 488.047 565.69 476.283 566.734 473.479C568.339 469.17 568.792 427.459 569.401 408.759Z" fill="white"/>
<path d="M567.815 405.159C567.67 410.292 566.225 468.564 564.996 472.179C563.767 475.793 553.798 492.313 550.612 496.592" stroke="#1B3B86" stroke-width="4.625" stroke-linecap="round" stroke-linejoin="round"/>
<path d="M0.000427246 0.000488281H626.001V626.001H0.000427246V0.000488281ZM0.000427246 626.001H626.001V0.000488281H0.000427246V626.001ZM534.792 340.393C561.206 334.626 579.338 398.822 575.472 404.22C571.609 409.617 524.002 417.45 519.753 413.581C515.503 409.711 512.672 345.223 534.792 340.393Z" fill="#46DBC8"/>
<path d="M541.393 410.927C529.918 412.619 519.316 413.233 517.411 411.5C514.919 409.23 512.913 386.094 516.149 366.382" stroke="#1B3B86" stroke-width="4.625" stroke-linecap="round" stroke-linejoin="round"/>
<path d="M536.785 337.979C560.817 339.512 576.783 397.043 573.134 402.139C572.071 403.624 567.695 405.293 561.824 406.853" stroke="#1B3B86" stroke-width="4.625" stroke-linecap="round" stroke-linejoin="round"/>
<path d="M6.10352e-05 0H626V626H6.10352e-05V0ZM6.10352e-05 626H626V0H6.10352e-05V626ZM478.389 277.828C478.389 299.863 487.967 303.859 487.967 307.856C487.967 311.851 483.619 333.769 482.385 336.648C485.617 341.173 508.415 343.524 512.764 342.349C513.116 338.058 518.582 310.147 519.816 308.266C521.049 306.386 534.858 295.34 534.858 286.173C534.858 265.665 533.506 238.4 519.874 238.4C503.304 238.4 478.389 246.45 478.389 277.828Z" fill="white"/>
<path d="M0.00109863 0H626.001V626H0.00109863V0ZM0.00109863 626H626.001V0H0.00109863V626ZM519.837 307.914C518.584 311.495 512.933 337.982 512.515 342.16C507.203 344.069 485.37 340.898 482.625 336.721C485.31 328.843 488.165 313.213 487.925 306.647" fill="white"/>
<path d="M480.982 334.343C483.668 326.464 486.523 310.835 486.284 304.271" stroke="#1B3B86" stroke-width="4.625" stroke-linecap="round" stroke-linejoin="round"/>
<path d="M518.195 305.537C516.942 309.118 511.29 335.604 510.872 339.782C508.293 340.709 501.818 340.439 495.525 339.436" stroke="#1B3B86" stroke-width="4.625" stroke-linecap="round" stroke-linejoin="round"/>
<path d="M479.002 261.842C480.688 256.806 483.191 251.881 485.75 248.161" stroke="#1B3B86" stroke-width="4.625" stroke-linecap="round" stroke-linejoin="round"/>
<path d="M506.468 310.675C503.59 311.25 500.671 311.275 497.797 310.66C484.343 307.783 475.777 292.782 476.539 275.309" stroke="#1B3B86" stroke-width="4.625" stroke-linecap="round" stroke-linejoin="round"/>
<path d="M0 0H626V626H0V0ZM0 626H626V0H0V626ZM540.41 282.62C547.195 275.897 550.866 261.284 550.866 253.293C550.866 236.865 541.202 230.122 539.395 230.122C537.588 230.122 535.688 233.923 535.977 236.582C534.345 234.318 520.026 220.311 494.214 220.311C487.064 220.311 481.929 223.775 481.929 229.47C481.929 232.061 483.128 236.103 485.213 237.493C483.097 237.65 480.096 239.163 480.096 243.367C480.096 248.169 486.54 250.441 489.098 250.441C491.656 250.441 495.446 247.788 497.277 245.293C497.846 248.041 496.127 252.518 502.111 252.558C504.637 252.574 515.279 247.188 517.27 245.388C515.249 248.862 512.469 250.457 512.469 254.389C512.469 258.067 514.27 260.643 517.048 260.643C519.828 260.643 527.85 256.853 529.335 255.147C529.65 257.642 526.868 275.055 527.706 279.802C530.499 280.012 533.927 276.456 533.971 279.371" fill="#E39D75"/>
<path d="M509.641 246.714C512.26 245.37 514.589 243.999 515.417 243.25C513.396 246.723 510.616 248.319 510.616 252.251C510.616 255.93 512.416 258.505 515.195 258.505C517.975 258.505 525.997 254.714 527.481 253.009C527.798 255.504 525.015 272.917 525.853 277.664C528.646 277.874 532.074 274.318 532.118 277.233" stroke="#1B3B86" stroke-width="4.625" stroke-linecap="round" stroke-linejoin="round"/>
<path d="M499.995 218.594C497.573 218.323 495.029 218.174 492.362 218.174C485.211 218.174 480.075 221.638 480.075 227.333C480.075 229.923 481.276 233.965 483.36 235.355C481.244 235.514 478.244 237.027 478.244 241.229C478.244 246.032 484.686 248.304 487.245 248.304C489.803 248.304 493.593 245.651 495.424 243.155C495.945 245.67 494.549 249.635 498.896 250.318" stroke="#1B3B86" stroke-width="4.625" stroke-linecap="round" stroke-linejoin="round"/>
<path d="M548.087 259.486C548.699 256.385 549.013 253.488 549.013 251.154C549.013 234.727 539.349 227.983 537.542 227.983C535.735 227.983 533.835 231.785 534.124 234.443C533.028 232.924 526.204 226.101 514.016 221.788" stroke="#1B3B86" stroke-width="4.625" stroke-linecap="round" stroke-linejoin="round"/>
<path d="M538.557 280.483C540.9 278.161 542.871 274.899 544.449 271.294" stroke="#1B3B86" stroke-width="4.625" stroke-linecap="round" stroke-linejoin="round"/>
<path d="M530.381 277.739C531.137 277.461 531.954 277.309 532.806 277.309C536.685 277.309 539.829 280.454 539.829 284.333C539.829 288.211 536.685 291.357 532.806 291.357C529.718 291.357 527.094 289.362 526.154 286.591" stroke="#1B3B86" stroke-width="4.625" stroke-linecap="round" stroke-linejoin="round"/>
<path d="M484.089 265.235C484.783 261.941 487.275 259.677 489.654 260.178C492.034 260.679 493.403 263.754 492.709 267.049" stroke="#1B3B86" stroke-width="4.625" stroke-linecap="round" stroke-linejoin="round"/>
<path d="M506.888 270.524C507.581 267.231 510.072 264.967 512.453 265.467C514.833 265.968 516.201 269.044 515.508 272.339" stroke="#1B3B86" stroke-width="4.625" stroke-linecap="round" stroke-linejoin="round"/>
<path d="M496.797 271.952C495.384 273.907 491.683 278.27 489.938 279.112" stroke="#1B3B86" stroke-width="4.625" stroke-linecap="round" stroke-linejoin="round"/>
<path d="M497.763 285.827C499.786 286.235 504.201 286.523 508.668 285.679C509.589 288.951 508.668 296.084 500.345 297.277" stroke="#1B3B86" stroke-width="4.625" stroke-linecap="round" stroke-linejoin="round"/>
<path d="M435.859 161.097V191.907L436.054 191.904V224.794L413.075 200.224H346.995V161.097H435.859Z" fill="white"/>
<path d="M419.653 157.491H431.976V196.666L432.012 220.91L408.28 196.666H342.861V191.396" stroke="#1B3B86" stroke-width="4.625" stroke-linecap="round" stroke-linejoin="round"/>
<path d="M342.861 176.257V157.492H392.19" stroke="#1B3B86" stroke-width="4.625" stroke-linecap="round" stroke-linejoin="round"/>
<path d="M399.666 169.358C380.908 169.358 356.938 169.358 356.938 169.358" stroke="#1B3B86" stroke-width="4.625" stroke-linecap="round" stroke-linejoin="round"/>
<path d="M372.266 184.646C365.718 184.646 357.35 184.646 357.35 184.646" stroke="#1B3B86" stroke-width="4.625" stroke-linecap="round" stroke-linejoin="round"/>
<path d="M234.71 198.208V229.018L234.515 229.015V261.905L257.495 237.335H323.574V198.208H234.71Z" fill="white"/>
<path d="M230.993 246.225L230.976 257.701L254.707 233.456H320.127V194.281H310.746" stroke="#1B3B86" stroke-width="4.625" stroke-linecap="round" stroke-linejoin="round"/>
<path d="M290.122 194.281H231.011V226.876" stroke="#1B3B86" stroke-width="4.625" stroke-linecap="round" stroke-linejoin="round"/>
<path d="M241.361 206.147H306.05" stroke="#1B3B86" stroke-width="4.625" stroke-linecap="round" stroke-linejoin="round"/>
<path d="M241.361 221.436H263.944" stroke="#1B3B86" stroke-width="4.625" stroke-linecap="round" stroke-linejoin="round"/>
<path d="M0.000427246 0.000488281H626.001V626.001H0.000427246V0.000488281ZM0.000427246 626.001H626.001V0.000488281H0.000427246V626.001ZM201.368 444.717C205.123 442.651 241.376 415.821 243.359 413.312C245.34 410.802 252.456 396.467 253.054 395.531C253.653 394.596 257.459 392.847 257.935 393.251C260.855 395.73 256.174 404.17 255.613 405.461C258.332 402.98 275.532 389.531 277.639 390.192C292.789 394.949 287.121 415.168 277.599 420.096C274.991 421.444 260.727 426.892 259.358 428.086C257.99 429.278 197.984 479.241 196.636 480.203C195.892 476.754 197.615 446.784 201.368 444.717Z" fill="white"/>
<path d="M200.155 441.567C204.391 439.337 237.927 414.543 241.045 411.256C244.162 407.967 249.346 394.483 251.612 392.488C253.877 390.493 255.388 389.399 256.737 390.887C258.086 392.374 255.717 399.835 252.783 403.75C258.319 398.004 271.342 388.886 275.941 387.29" stroke="#1B3B86" stroke-width="4.625" stroke-linecap="round" stroke-linejoin="round"/>
<path d="M221.276 456.036C209.462 466.215 198.772 475.496 196.892 477.179" stroke="#1B3B86" stroke-width="4.625" stroke-linecap="round" stroke-linejoin="round"/>
<path d="M276.128 416.743C270.963 419.376 260.769 423.216 256.053 426.578C254.708 427.539 249.659 431.76 243.033 437.391" stroke="#1B3B86" stroke-width="4.625" stroke-linecap="round" stroke-linejoin="round"/>
<path d="M260.076 404.815C261.683 403.483 266.667 399.922 271.633 396.706C276.245 393.718 280.843 391.03 282.706 390.703" stroke="#1B3B86" stroke-width="4.625" stroke-linecap="round" stroke-linejoin="round"/>
<path d="M264.081 409.472C265.688 408.142 270.671 404.58 275.638 401.364C280.25 398.377 284.847 395.688 286.71 395.361" stroke="#1B3B86" stroke-width="4.625" stroke-linecap="round" stroke-linejoin="round"/>
<path d="M266.009 415.768C267.437 414.567 271.862 411.355 276.27 408.455C280.366 405.761 284.447 403.337 286.102 403.042" stroke="#1B3B86" stroke-width="4.625" stroke-linecap="round" stroke-linejoin="round"/>
<path d="M0.000427246 0.000976562H626.001V626.001H0.000427246V0.000976562ZM0.000427246 626.001H626.001V0.000976562H0.000427246V626.001ZM156.241 335.722C93.1732 335.722 80.7091 445.725 82.5453 496.765H198.139C208.43 446.223 210.138 335.722 156.241 335.722Z" fill="#46DBC8"/>
<path d="M199.389 415.833C200.951 445.649 197.784 476.702 193.32 496.548" stroke="#1B3B86" stroke-width="4.625" stroke-linecap="round" stroke-linejoin="round"/>
<path d="M168.137 335.708C179.366 341.684 187.016 354.165 191.979 369.924" stroke="#1B3B86" stroke-width="4.625" stroke-linecap="round" stroke-linejoin="round"/>
<path d="M117.798 346.317C122.784 341.394 128.341 337.48 134.525 334.853" stroke="#1B3B86" stroke-width="4.625" stroke-linecap="round" stroke-linejoin="round"/>
<path d="M0.00109863 0.00146484H626.001V626.002H0.00109863V0.00146484ZM0.00109863 626.002H626.001V0.00146484H0.00109863V626.002ZM135.473 347.722C139.3 337.318 138.708 302.343 138.329 298.883C137.871 294.708 134.727 264.595 142.277 258.233C149.827 251.872 161.431 244.743 168.281 245.232C175.132 245.721 195.517 266.235 195.517 291.072C195.517 315.909 172.93 327.774 167.638 327.941C166.914 333.456 166.969 348.219 166.969 353.566C164.797 355.647 141.025 354.946 135.473 347.722Z" fill="white"/>
<path d="M0.00109863 0.000488281H626.001V626.001H0.00109863V0.000488281ZM0.00109863 626.001H626.001V0.000488281H0.00109863V626.001ZM139.242 277.11C135.703 276.894 132.954 280.086 129.999 283.133C127.347 263.529 136.587 229.068 149.834 226.711C152.112 226.8 152.399 229.819 151.734 232.476C160.045 224.894 175.659 220.682 182.286 220.626C190.878 220.626 193.911 227.399 193.911 229.724C193.911 235.614 190.055 244.407 188.631 246.684C190.903 245.476 192.724 245.035 194.478 245.035C198.897 245.035 199.977 251.889 199.977 253.929C199.977 261.055 192.431 268.307 188.688 268.307C186.933 268.307 182.081 265.573 180.61 263.532C181.128 265.047 181.703 265.472 181.724 267.801C181.74 269.723 178.948 270.777 177.287 270.777C172.885 270.777 164.157 262.184 156.171 262.184C153.515 262.184 150.161 265.992 150.161 268.138C150.161 270.284 151.288 280.423 150.61 280.774C148.549 282.399 147.593 277.567 139.409 277.043" fill="#EDCA54"/>
<path d="M189.302 303.476C184.202 316.086 173.776 324.727 161.742 324.727C155.649 324.727 149.968 322.512 145.182 318.686" stroke="#1B3B86" stroke-width="4.625" stroke-linecap="round" stroke-linejoin="round"/>
<path d="M188.141 265.829C191.182 271.838 192.633 278.285 192.633 285.932C192.633 287.744 192.534 289.527 192.343 291.274" stroke="#1B3B86" stroke-width="4.625" stroke-linecap="round" stroke-linejoin="round"/>
<path d="M164.121 350.397C163.788 344.245 163.976 328.208 164.806 324.717" stroke="#1B3B86" stroke-width="4.625" stroke-linecap="round" stroke-linejoin="round"/>
<path d="M135.427 328.239C134.949 334.524 134.143 340.409 132.859 344.466C135.305 347.334 141.863 349.529 148.688 350.555" stroke="#1B3B86" stroke-width="4.625" stroke-linecap="round" stroke-linejoin="round"/>
<path d="M135.409 296.134C135.785 297.929 136.159 306.254 135.983 315.84" stroke="#1B3B86" stroke-width="4.625" stroke-linecap="round" stroke-linejoin="round"/>
<path d="M188.183 265.818C187.663 266.002 187.18 266.099 186.751 266.099C183.217 266.099 177.283 260.164 177.283 260.164C178.617 263.431 179.417 264.365 179.417 265.698C179.417 267.032 177.749 268.495 175.283 268.565C169.277 268.736 162.645 260.003 154.21 260.003C152.013 260.003 147.719 263.012 147.719 266.647C147.719 269.1 148.486 276.153 148.486 277.839C148.486 278.513 148.097 278.967 147.381 279.269" stroke="#1B3B86" stroke-width="4.625" stroke-linecap="round" stroke-linejoin="round"/>
<path d="M175.716 219.035C177.069 218.856 178.419 218.756 179.751 218.756C186.285 218.756 191.552 223.157 191.552 228.092C191.552 233.026 187.885 242.76 185.418 245.095C188.685 243.628 189.618 243.095 191.885 243.095C196.664 243.095 197.553 248.162 197.553 251.963C197.553 258.634 191.942 264.496 188.182 265.819" stroke="#1B3B86" stroke-width="4.625" stroke-linecap="round" stroke-linejoin="round"/>
<path d="M134.908 238.354C139.207 229.337 144.228 224.557 146.558 224.557C151.056 224.557 149.598 229.298 149.416 230.818C151.059 229.136 157.503 224.798 165.287 221.811" stroke="#1B3B86" stroke-width="4.625" stroke-linecap="round" stroke-linejoin="round"/>
<path d="M127.593 270.589C127.905 261.5 129.412 253.645 131.474 247.125" stroke="#1B3B86" stroke-width="4.625" stroke-linecap="round" stroke-linejoin="round"/>
<path d="M0.00109863 0.00146484H626.001V626.002H0.00109863V0.00146484ZM0.00109863 626.002H626.001V0.00146484H0.00109863V626.002ZM141.291 297.2C140.733 297.29 140.16 297.336 139.578 297.336C133.644 297.336 128.834 292.527 128.834 286.594C128.834 280.661 133.644 275.851 139.578 275.851C143.703 275.851 147.284 278.176 149.084 281.586" fill="white"/>
<path d="M140.054 296.169C139.496 296.259 138.923 296.305 138.34 296.305C132.407 296.305 127.597 291.495 127.597 285.562C127.597 279.63 132.407 274.82 138.34 274.82C142.465 274.82 146.047 277.145 147.847 280.555" stroke="#1B3B86" stroke-width="4.625" stroke-linecap="round" stroke-linejoin="round"/>
<path d="M0.00109863 0.000976562H626.001V626.001H0.00109863V0.000976562ZM0.00109863 626.001H626.001V0.000976562H0.00109863V626.001ZM157.364 278.319C157.364 276.462 158.163 274.957 159.148 274.957C160.132 274.957 160.93 276.462 160.93 278.319C160.93 280.175 160.132 281.68 159.148 281.68C158.163 281.68 157.364 280.175 157.364 278.319Z" fill="#1B3B86"/>
<path d="M0.00109863 0.000976562H626.001V626.001H0.00109863V0.000976562ZM0.00109863 626.001H626.001V0.000976562H0.00109863V626.001ZM182.734 279.663C182.734 277.807 183.532 276.302 184.516 276.302C185.502 276.302 186.299 277.807 186.299 279.663C186.299 281.52 185.502 283.025 184.516 283.025C183.532 283.025 182.734 281.52 182.734 279.663Z" fill="#1B3B86"/>
<path d="M175.587 287.198C176.005 290.16 178.424 295.123 181.094 297.043" stroke="#1B3B86" stroke-width="4.625" stroke-linecap="round" stroke-linejoin="round"/>
<path d="M174.128 304.217C172.292 303.967 166.451 300.838 165.284 298.586C163.114 299.629 162.029 307.011 166.451 308.138" stroke="#1B3B86" stroke-width="4.625" stroke-linecap="round" stroke-linejoin="round"/>
<path d="M0.00109863 0.000976562H626.001V626.001H0.00109863V0.000976562ZM0.00109863 626.001H626.001V0.000976562H0.00109863V626.001ZM66.1161 404.347L66.1824 404.519C63.8849 409.67 43.2927 467.969 44.1972 472.8C45.1075 477.662 49.9335 486.234 53.4829 488.216C55.1058 489.124 71.3547 492.603 90.7341 496.764H207.616C205.228 490.681 195.25 485.671 186.019 485.653C182.887 485.55 177.988 485.763 174.43 489.83C139.217 473.579 99.773 464.29 88.3062 461.304L87.049 458.056C90.8619 450.763 102.356 429.659 103.961 426.372C97.8548 423.268 66.5366 404.598 66.2611 404.435L66.2397 404.377C66.2366 404.383 66.2272 404.404 66.2241 404.411C66.2236 404.41 66.1161 404.347 66.1161 404.347Z" fill="white"/>
<path d="M48.4634 448.132C44.9875 459.079 42.4345 468.094 42.7673 469.87C43.6776 474.732 48.501 483.3 52.0499 485.285C54.0134 486.381 77.0075 491.277 101.533 496.578" stroke="#1B3B86" stroke-width="4.625" stroke-linecap="round" stroke-linejoin="round"/>
<path d="M64.6419 401.42C63.7368 403.384 59.3261 415.617 54.6978 429.235" stroke="#1B3B86" stroke-width="4.625" stroke-linecap="round" stroke-linejoin="round"/>
<path d="M102.82 423.245C100.442 427.115 85.0004 456.286 84.6113 457.504C91.913 459.637 135.286 469.167 173.288 486.707C176.848 482.639 181.745 482.426 184.877 482.53C195.535 482.551 207.011 488.064 207.011 496.521" stroke="#1B3B86" stroke-width="4.625" stroke-linecap="round" stroke-linejoin="round"/>
<path d="M0.00109863 0.000976562H626.001V626.001H0.00109863V0.000976562ZM0.00109863 626.001H626.001V0.000976562H0.00109863V626.001ZM119.994 352.075C146.28 367.444 118.732 425.914 111.62 427.774C97.642 428.738 65.4557 408.558 62.358 400.39C59.2598 392.221 94.055 336.908 119.994 352.075Z" fill="#46DBC8"/>
<path d="M127.912 385.972C123.998 404.664 113.898 422.826 109.983 423.849C96.0061 424.814 63.8203 404.634 60.7221 396.465C59.5865 393.471 63.5407 384.146 70.2827 374.279" stroke="#1B3B86" stroke-width="4.625" stroke-linecap="round" stroke-linejoin="round"/>
<path d="M86.5269 355.771C96.6149 347.109 108.17 342.194 118.359 348.151C122.414 350.522 125.188 353.919 126.954 357.977" stroke="#1B3B86" stroke-width="4.625" stroke-linecap="round" stroke-linejoin="round"/>
<path d="M25.1998 496.57H607.221" stroke="#1B3B86" stroke-width="4.625" stroke-linecap="round" stroke-linejoin="round"/>
</svg>
