<svg width="684" height="684" viewBox="0 0 684 684" fill="none" xmlns="http://www.w3.org/2000/svg">
<path d="M684 0H0V684H684V0Z" fill="white"/>
<path d="M531.75 347.496C531.75 369.88 513.603 388.027 491.219 388.027C468.833 388.027 450.687 369.88 450.687 347.496C450.687 325.111 468.833 306.964 491.219 306.964C513.603 306.964 531.75 325.111 531.75 347.496Z" fill="white"/>
<path d="M279.185 262.254H129.03V307.555H279.185V262.254Z" fill="#D6DFFF"/>
<path d="M266.269 284.679C266.269 291.982 260.349 297.903 253.046 297.903C245.743 297.903 239.824 291.982 239.824 284.679C239.824 277.376 245.743 271.456 253.046 271.456C260.349 271.456 266.269 277.376 266.269 284.679Z" fill="#B1C3FA"/>
<path d="M228.067 277.009H153.433" stroke="#EAEFFF" stroke-width="3.69" stroke-linecap="round" stroke-linejoin="round"/>
<path d="M228.067 292.35H188.522" stroke="#EAEFFF" stroke-width="3.69" stroke-linecap="round" stroke-linejoin="round"/>
<path d="M198.093 174.162H146.711V195.62H198.093V174.162Z" fill="#EAEFFF"/>
<path d="M174.186 200.689H122.802V222.147H174.186V200.689Z" fill="#EAEFFF"/>
<path d="M308.201 145.543H263.582V202.162H308.201V145.543Z" fill="#EAEFFF"/>
<path d="M266.03 182.101L319.341 222.4L347.961 162.002L266.03 182.101Z" stroke="#B1C3FA" stroke-width="3" stroke-linecap="round" stroke-linejoin="round"/>
<path d="M530.096 135.265H392.884V239.156H530.096V135.265Z" fill="#D6DFFF"/>
<path d="M507.141 154.799H466.959V226.834H507.141V154.799Z" fill="#EAEFFF"/>
<path d="M453.728 170.645C453.728 179.794 446.312 187.21 437.164 187.21C428.015 187.21 420.599 179.794 420.599 170.645C420.599 161.496 428.015 154.081 437.164 154.081C446.312 154.081 453.728 161.496 453.728 170.645Z" fill="#FA5D63"/>
<path d="M556.86 272.236H470.01V359.086H556.86V272.236Z" stroke="#B1C3FA" stroke-width="3" stroke-linecap="round" stroke-linejoin="round"/>
<path d="M352.952 438.067H447.018V446.795H352.952V438.067Z" fill="#8087DC"/>
<path d="M408.965 443.941H350.096V435.212H444.162V443.941H427.633" stroke="#1B3B86" stroke-width="3.69" stroke-linecap="round" stroke-linejoin="round"/>
<path d="M374.384 443.942V565.94" stroke="#1B3B86" stroke-width="3.69" stroke-linecap="round" stroke-linejoin="round"/>
<path d="M419.877 490.501V565.94" stroke="#1B3B86" stroke-width="3.69" stroke-linecap="round" stroke-linejoin="round"/>
<path d="M419.877 443.94V469.636" stroke="#1B3B86" stroke-width="3.69" stroke-linecap="round" stroke-linejoin="round"/>
<path d="M327.604 566.769H543.113" stroke="#1B3B86" stroke-width="3.69" stroke-linecap="round" stroke-linejoin="round"/>
<path d="M118.123 566.769H276.921" stroke="#1B3B86" stroke-width="3.69" stroke-linecap="round" stroke-linejoin="round"/>
<path d="M223.042 342.393L249.271 385.005" stroke="#1B3B86" stroke-width="3.69" stroke-linecap="round" stroke-linejoin="round"/>
<path d="M211.186 547.883V566.768" stroke="#1B3B86" stroke-width="3.69" stroke-linecap="round" stroke-linejoin="round"/>
<path d="M211.186 398.234V512.813" stroke="#1B3B86" stroke-width="3.69" stroke-linecap="round" stroke-linejoin="round"/>
<path d="M298.415 398.234V566.768" stroke="#1B3B86" stroke-width="3.69" stroke-linecap="round" stroke-linejoin="round"/>
<path d="M328.806 393.497H185.686V400.682H328.806V393.497Z" fill="#8087DC"/>
<path d="M223.041 391.05H326.361V398.234H183.241V391.05H205.269" stroke="#1B3B86" stroke-width="3.69" stroke-linecap="round" stroke-linejoin="round"/>
<path d="M302.121 387.453H251.716V393.497H302.121V387.453Z" fill="#FA5D63"/>
<path d="M299.676 385.006H249.271V391.05H299.676V385.006Z" stroke="#1B3B86" stroke-width="3.69" stroke-linecap="round" stroke-linejoin="round"/>
<path d="M385.035 476.296L363.723 498.093" stroke="#1B3B86" stroke-width="3.69" stroke-linecap="round" stroke-linejoin="round"/>
<path d="M384.583 482.534L394.182 497.921L400.623 501.066L389.25 529.455L386.038 511.861L369.734 497.721" fill="white"/>
<path d="M370.978 498.557L366.808 494.94" stroke="#1B3B86" stroke-width="3.69" stroke-linecap="round" stroke-linejoin="round"/>
<path d="M381.656 479.753L391.256 495.141L397.696 498.286L386.323 526.674L383.111 509.081L379.612 506.046" stroke="#1B3B86" stroke-width="3.69" stroke-linecap="round" stroke-linejoin="round"/>
<path d="M346.757 433.222L382.544 477.523L365.185 494.968L312.654 449.041L325.082 431.943L346.757 433.222Z" fill="#3B3744"/>
<path d="M345.194 477.092L361.82 492.113" stroke="#1B3B86" stroke-width="3.69" stroke-linecap="round" stroke-linejoin="round"/>
<path d="M354.948 443.941L379.69 474.667" stroke="#1B3B86" stroke-width="3.69" stroke-linecap="round" stroke-linejoin="round"/>
<path d="M382.554 472.46L360.693 493.706" stroke="#1B3B86" stroke-width="3.69" stroke-linecap="round" stroke-linejoin="round"/>
<path d="M334.498 517.383L361.248 501.183" stroke="#1B3B86" stroke-width="3.69" stroke-linecap="round" stroke-linejoin="round"/>
<path d="M339.414 518.987L355.929 537.063L346.892 562.12L374.619 540.554L358.546 507.401" fill="white"/>
<path d="M365.315 524.396L355.692 504.547" stroke="#1B3B86" stroke-width="3.69" stroke-linecap="round" stroke-linejoin="round"/>
<path d="M336.56 516.134L353.075 534.209L344.038 559.266L371.766 537.7L368.956 531.907" stroke="#1B3B86" stroke-width="3.69" stroke-linecap="round" stroke-linejoin="round"/>
<path d="M337.353 512.511C332.516 508.13 275.959 437.659 275.959 428.936C275.959 409.495 298.017 402.602 304.039 401.089C312.328 400.338 349.119 397.258 354.906 397.496C359.078 402.016 407.528 412.445 414.549 411.547C414.549 415.062 408.965 439.653 369.337 439.653C365.183 439.653 333.946 438.406 333.365 438.406C333.365 445.717 353.386 493.32 355.297 496.561" fill="#3B3744"/>
<path d="M411.694 408.691C411.694 412.206 406.11 436.797 366.482 436.797C362.329 436.797 331.091 435.551 330.51 435.551C330.51 442.862 350.531 490.464 352.442 493.704" stroke="#1B3B86" stroke-width="3.69" stroke-linecap="round" stroke-linejoin="round"/>
<path d="M301.186 398.233C295.37 400.409 273.106 406.64 273.106 426.08C273.106 434.803 329.661 505.275 334.498 509.656" stroke="#1B3B86" stroke-width="3.69" stroke-linecap="round" stroke-linejoin="round"/>
<path d="M331.673 512.813L357.592 496.281" stroke="#1B3B86" stroke-width="3.69" stroke-linecap="round" stroke-linejoin="round"/>
<path d="M369.886 310.596C366.321 310.596 340.468 336.684 339.406 342.147C338.942 344.53 331.077 385.231 331.077 385.231L374.211 373.183L376.739 318.299L370.594 310.596H369.886Z" fill="#46DBC8"/>
<path d="M353.906 318.51C358.056 314.069 363.083 309.299 367.116 307.371" stroke="#1B3B86" stroke-width="3.69" stroke-linecap="round" stroke-linejoin="round"/>
<path d="M388.621 297.849C420.692 297.849 427.635 355.709 427.635 372.13C427.635 393.07 419.14 409.8 415.071 411.366C403.609 415.773 361.534 401.336 358.864 394.503C345.859 361.219 367.269 297.849 388.621 297.849Z" fill="#46DBC8"/>
<path d="M364.307 397.786C359.808 395.541 356.677 393.356 356.01 391.648C351.998 381.381 351.261 368.25 352.788 354.999" stroke="#1B3B86" stroke-width="3.69" stroke-linecap="round" stroke-linejoin="round"/>
<path d="M420.342 336.27C423.681 349.662 424.78 362.747 424.78 369.277C424.78 390.217 416.285 406.946 412.216 408.512C406.843 410.578 394.744 408.505 383.13 405.014" stroke="#1B3B86" stroke-width="3.69" stroke-linecap="round" stroke-linejoin="round"/>
<path d="M381.508 295.812C382.921 295.278 384.345 294.996 385.767 294.996C394.222 294.996 400.931 299.017 406.225 305.24" stroke="#1B3B86" stroke-width="3.69" stroke-linecap="round" stroke-linejoin="round"/>
<path d="M359.187 327.333C361.602 320.507 364.513 314.277 367.737 309.148" stroke="#1B3B86" stroke-width="3.69" stroke-linecap="round" stroke-linejoin="round"/>
<path d="M318.664 389.619C317.762 386.751 320.022 304.784 321.972 301.464C323.988 298.032 326.794 297.171 327.994 296.888C329.193 296.605 335.65 297.66 337.665 300.149C337.005 305.59 332.845 309.701 332.845 309.701L340.259 371.805L318.664 389.619Z" fill="white"/>
<path d="M317.695 304.132C317.946 301.567 318.196 299.923 318.441 299.507C320.456 296.075 323.263 295.213 324.463 294.93C325.662 294.647 332.119 295.703 334.134 298.192" stroke="#1B3B86" stroke-width="3.69" stroke-linecap="round" stroke-linejoin="round"/>
<path d="M315.114 362.274C315.453 348.206 316.054 330.95 316.741 318.078" stroke="#1B3B86" stroke-width="3.69" stroke-linecap="round" stroke-linejoin="round"/>
<path d="M315.021 387.27C314.853 386.736 314.799 383.466 314.834 378.477" stroke="#1B3B86" stroke-width="3.69" stroke-linecap="round" stroke-linejoin="round"/>
<path d="M326.809 299.626C328.033 299.475 331.362 300.388 333.335 301.689" stroke="#1B3B86" stroke-width="3.69" stroke-linecap="round" stroke-linejoin="round"/>
<path d="M324.717 304.727C325.94 304.576 329.269 305.488 331.242 306.79" stroke="#1B3B86" stroke-width="3.69" stroke-linecap="round" stroke-linejoin="round"/>
<path d="M336.637 369.53C335.979 366.873 329.476 319.652 329.762 309.922" stroke="#1B3B86" stroke-width="3.69" stroke-linecap="round" stroke-linejoin="round"/>
<path d="M372.033 271.78L370.28 275.76L364.1 276.329C364.1 276.329 363.131 266.769 363.168 264.658C359.911 266.143 342.909 267.235 340.052 267.046C340.129 264.807 344.101 246.111 359.689 249.424C373.422 252.343 376.657 267.403 376.675 269.091C375.77 269.392 372.437 269.88 372.033 271.78Z" fill="#EDCA54"/>
<path d="M370.658 255.596C372.664 258.322 374.259 261.573 375.246 265.2C375.407 265.79 375.548 266.38 375.671 266.969" stroke="#1B3B86" stroke-width="3.69" stroke-linecap="round" stroke-linejoin="round"/>
<path d="M339.42 274.949C335.984 262.319 341.218 249.899 351.111 247.207C354.344 246.327 357.673 246.595 360.812 247.794" stroke="#1B3B86" stroke-width="3.69" stroke-linecap="round" stroke-linejoin="round"/>
<path d="M368.476 290.558C367.007 291.637 365.358 292.452 363.554 292.942C356.801 294.779 349.624 291.61 344.655 285.397" stroke="#1B3B86" stroke-width="3.69" stroke-linecap="round" stroke-linejoin="round"/>
<path d="M370.463 269.363C371.668 267.555 373.894 266.568 376.149 267.047C379.101 267.675 380.985 270.577 380.358 273.529C379.73 276.482 376.829 278.366 373.876 277.739C373.042 277.562 372.293 277.203 371.661 276.712" stroke="#1B3B86" stroke-width="3.69" stroke-linecap="round" stroke-linejoin="round"/>
<path d="M366.672 309.408C366.481 306.425 365.5 297.148 362.662 293.154" stroke="#1B3B86" stroke-width="3.69" stroke-linecap="round" stroke-linejoin="round"/>
<path d="M375.954 279.581C376.264 283.467 383.289 298.744 385.321 301.086C384.838 302.645 381.057 305.051 376.984 306.917" stroke="#1B3B86" stroke-width="3.69" stroke-linecap="round" stroke-linejoin="round"/>
<path d="M364.061 273.77L368.711 273.342L370.462 269.362" stroke="#1B3B86" stroke-width="3.69" stroke-linecap="round" stroke-linejoin="round"/>
<path d="M353.937 263.66C357.414 263.267 360.413 262.779 361.597 262.24C361.57 263.774 362.075 269.251 362.353 272.123" stroke="#1B3B86" stroke-width="3.69" stroke-linecap="round" stroke-linejoin="round"/>
<path d="M338.481 264.628C339.584 264.701 342.787 264.583 346.496 264.326" stroke="#1B3B86" stroke-width="3.69" stroke-linecap="round" stroke-linejoin="round"/>
<path d="M352.946 269.97C353.015 270.972 353.513 271.754 354.059 271.717C354.604 271.679 354.989 270.836 354.92 269.834C354.851 268.832 354.353 268.05 353.807 268.087C353.262 268.125 352.877 268.968 352.946 269.97Z" fill="#1B3B86"/>
<path d="M344.544 279.075C344.394 279.421 344.214 279.743 344 280.027" stroke="#1B3B86" stroke-width="3.14" stroke-linecap="round" stroke-linejoin="round"/>
<path d="M345.123 273.423C345.252 274.134 345.337 275.797 345.035 277.406" stroke="#1B3B86" stroke-width="3.14" stroke-linecap="round" stroke-linejoin="round"/>
<path d="M359.319 281.654C359.216 282.941 357.93 284.694 355.999 285.467" stroke="#1B3B86" stroke-width="3.14" stroke-linecap="round" stroke-linejoin="round"/>
<path d="M399.863 311.847C415.133 317.163 407.356 349.869 403.057 350.971C398.76 352.074 372.865 341.824 372.037 339.069C371.207 336.314 382.022 305.636 399.863 311.847Z" fill="#46DBC8"/>
<path d="M380.472 313.817C384.893 309.386 390.48 306.719 397.009 308.992C412.279 314.307 404.502 347.014 400.204 348.116C395.906 349.218 370.011 338.968 369.182 336.213C368.987 335.562 369.441 333.354 370.483 330.442" stroke="#1B3B86" stroke-width="3.69" stroke-linecap="round" stroke-linejoin="round"/>
<path d="M373.821 340.671C372.577 342.495 365.698 364.746 365.698 364.746C365.698 364.746 317.096 385.687 314.671 386.789C313.789 385.577 310.883 383.372 304.972 383.372C294.17 383.372 292.298 390.536 292.298 392.079C292.298 393.622 308.719 397.038 313.128 396.928C317.536 396.818 379.144 387.45 381.348 386.348C383.551 385.246 398.292 350.428 398.292 350.428C394.31 350.215 375.905 344.521 373.821 340.671Z" fill="white"/>
<path d="M343.182 389.466C327.632 391.841 312.386 394.019 310.273 394.073C305.864 394.182 289.444 390.766 289.444 389.223C289.444 387.68 291.316 380.517 302.118 380.517C308.029 380.517 310.934 382.721 311.816 383.933C314.24 382.831 362.844 361.891 362.844 361.891C362.844 361.891 369.722 339.64 370.967 337.816" stroke="#1B3B86" stroke-width="3.69" stroke-linecap="round" stroke-linejoin="round"/>
<path d="M317.246 296.044C317.613 291.869 315.63 284.428 314.734 281.125C317.867 280.121 320.494 283.323 320.689 285.471" stroke="#193A89" stroke-width="4" stroke-linecap="round" stroke-linejoin="round"/>
</svg>
